<?xml version="1.0" encoding="UTF-8" standalone="no"?>
<!-- Created with Inkscape (http://www.inkscape.org/) -->

<svg
   xmlns:dc="http://purl.org/dc/elements/1.1/"
   xmlns:cc="http://creativecommons.org/ns#"
   xmlns:rdf="http://www.w3.org/1999/02/22-rdf-syntax-ns#"
   xmlns:svg="http://www.w3.org/2000/svg"
   xmlns="http://www.w3.org/2000/svg"
   xmlns:sodipodi="http://sodipodi.sourceforge.net/DTD/sodipodi-0.dtd"
   xmlns:inkscape="http://www.inkscape.org/namespaces/inkscape"
   width="1920"
   height="1080"
   viewBox="0 0 507.99999 285.75001"
   version="1.1"
   id="svg16"
   inkscape:export-filename="/home/ivan/Images/nand.png"
   inkscape:export-xdpi="96"
   inkscape:export-ydpi="96"
   inkscape:version="0.92.4 5da689c313, 2019-01-14"
   sodipodi:docname="drawing.svg">
  <defs
     id="defs10" />
  <sodipodi:namedview
     id="base"
     pagecolor="#ffffff"
     bordercolor="#666666"
     borderopacity="1.0"
     inkscape:pageopacity="0.0"
     inkscape:pageshadow="2"
     inkscape:zoom="0.70710678"
     inkscape:cx="897.97202"
     inkscape:cy="596.15104"
     inkscape:document-units="mm"
     inkscape:current-layer="layer3"
     showgrid="false"
     units="px"
     inkscape:window-width="1892"
     inkscape:window-height="1006"
     inkscape:window-x="12"
     inkscape:window-y="58"
     inkscape:window-maximized="1" />
  <metadata
     id="metadata13">
    <rdf:RDF>
      <cc:Work
         rdf:about="">
        <dc:format>image/svg+xml</dc:format>
        <dc:type
           rdf:resource="http://purl.org/dc/dcmitype/StillImage" />
        <dc:title />
      </cc:Work>
    </rdf:RDF>
  </metadata>
  <g
     inkscape:label="Layer 1"
     inkscape:groupmode="layer"
     id="layer1"
     transform="translate(0,-11.249992)"
     sodipodi:insensitive="true">
    <rect
       style="fill:#3c3836;fill-opacity:1;stroke-width:0.26458332"
       id="rect18"
       width="508"
       height="285.75"
       x="0.75595254"
       y="12.005944" />
  </g>
  <g
     inkscape:groupmode="layer"
     id="layer2"
     inkscape:label="Layer 2"
     sodipodi:insensitive="true"
     style="display:none">
    <path
       style="fill:#000000;stroke-width:0.03650443"
       d="m 248.40444,153.34413 h 0.98561 v -0.71183 -0.71184 h -0.96736 -0.96737 v -1.11339 -1.11338 h 0.96737 0.96736 v -0.69359 -0.69359 h -0.9679 -0.9679 l 0.01,-1.10425 0.01,-1.10427 0.95824,-0.01 0.95824,-0.01 v -0.68419 -0.6842 h -0.95824 -0.95824 l -0.01,-1.10425 -0.01,-1.10427 h 0.9679 0.9679 v -0.69298 -0.69298 l -0.95824,-0.01 -0.95824,-0.01 -0.01,-1.10426 -0.01,-1.10425 h 0.9679 0.9679 v -0.69359 -0.69359 h -0.9679 -0.9679 l 0.01,-1.10426 0.01,-1.10429 0.95824,-0.01 0.95824,-0.01 v -0.69297 -0.69297 h -0.9679 -0.9679 l 0.01,-1.10427 0.01,-1.10425 0.95761,0.002 0.95762,0.002 0.01,-0.87701 0.01,-0.87699 h 2.13506 2.13506 l 0.0242,0.169 c 0.0796,0.55676 0.5152,0.94324 1.06391,0.94403 0.54349,0.002 0.95133,-0.33763 1.06224,-0.88142 l 0.0473,-0.23161 2.12254,-0.009 2.12253,-0.009 0.01,0.88553 0.01,0.88553 h 0.96736 0.96737 l 0.01,1.10366 0.01,1.10366 -0.97702,0.01 -0.97703,0.01 -0.01,0.68386 -0.01,0.68386 0.9773,0.01 0.97729,0.01 0.01,1.10425 0.01,1.10427 h -0.98616 -0.98615 v 0.69358 0.69359 h 0.98615 0.98616 l -0.01,1.10425 -0.01,1.10427 -0.97729,0.01 -0.9773,0.01 0.01,0.68386 0.01,0.68385 0.97703,0.01 0.97702,0.01 -0.01,1.10366 -0.01,1.10366 h -0.96737 -0.96736 l -0.01,0.68386 -0.01,0.68386 0.9773,0.01 0.9773,0.01 v 1.09513 1.09514 l -0.96737,0.0182 -0.96737,0.0182 -0.01,0.68386 -0.01,0.68386 0.9773,0.01 0.9773,0.01 v 1.09513 1.09514 l -0.9765,0.01 -0.97649,0.01 v 0.71125 0.71124 h 0.96736 0.96737 v 1.09452 1.09453 l -0.95824,0.01 -0.95824,0.01 -0.0182,0.89436 -0.0182,0.89436 -5.3075,0.009 c -3.89226,0.007 -5.32071,-0.002 -5.35703,-0.0318 -0.0391,-0.0325 -0.0495,-0.22345 -0.0495,-0.91274 v -0.87163 h -0.98562 -0.98561 v -1.09514 -1.09513 z m 0.0913,-16.02545 h 0.89435 v -0.93085 -0.93087 h -0.87547 -0.87548 l -0.0104,0.92174 c -0.006,0.50694 -0.0142,0.92584 -0.0189,0.93086 -0.005,0.005 0.394,0.009 0.88589,0.009 z m 0,10.80531 h 0.89435 v -0.93086 -0.93085 h -0.87547 -0.87548 l -0.0104,0.92173 c -0.006,0.50695 -0.0142,0.92584 -0.0189,0.93087 -0.005,0.005 0.394,0.009 0.88589,0.009 z m -0.0182,7.26439 h 0.87611 v -0.93999 -0.93999 h -0.87611 -0.8761 v 0.94035 0.94034 h 0.8761 z m 0.0365,-21.68363 h 0.87611 v -0.91262 -0.91261 h -0.87611 -0.87611 v 0.91261 0.91262 z m 0,7.22788 h 0.87611 v -0.93088 -0.93086 h -0.87611 -0.87611 v 0.93086 0.93088 z m 0,3.57743 h 0.87611 v -0.93086 -0.93087 h -0.87611 -0.87611 v 0.93087 0.93086 z m 0,7.22788 h 0.87611 v -0.93087 -0.93086 h -0.87611 -0.87611 v 0.93086 0.93087 z m 3.15373,-18.94581 c 1.87678,0 2.09741,0.006 2.11726,0.0577 0.0122,0.0317 0.0221,0.7792 0.0221,1.66097 v 1.6032 h 0.14473 c 0.22148,0 0.22916,0.0345 0.21432,0.96231 -0.0124,0.77919 -0.0163,0.81534 -0.10718,1.00893 -0.1072,0.22835 -0.31639,0.44768 -0.5147,0.53967 -0.12668,0.0588 -0.13381,0.0708 -0.11485,0.19404 0.0247,0.16029 -0.0626,0.34736 -0.18881,0.40488 -0.0856,0.039 -0.0888,0.0545 -0.0986,0.4821 l -0.0102,0.44181 -1.77959,0.01 -1.77959,0.01 v 1.65146 l -1e-5,1.65148 2.05338,-0.005 c 1.19032,-0.003 2.08022,0.009 2.11726,0.0287 0.0601,0.0316 0.0639,0.23319 0.0639,3.44547 v 3.41187 h 0.16358 c 0.14333,0 0.16636,0.0112 0.18611,0.0898 0.0124,0.0494 0.0162,0.44775 0.008,0.88524 -0.0135,0.75339 -0.0189,0.80505 -0.10311,0.97792 -0.11044,0.22673 -0.34038,0.46083 -0.53851,0.54823 -0.12524,0.0553 -0.14468,0.0772 -0.11596,0.13085 0.0802,0.14979 -5.1e-4,0.38219 -0.16315,0.46915 -0.0933,0.0499 -0.0944,0.0553 -0.0944,0.48169 0,0.41688 -0.003,0.43186 -0.0821,0.45127 -0.0452,0.011 -0.50924,0.0155 -1.03125,0.01 l -0.94911,-0.0102 -0.01,-1.77958 -0.01,-1.77959 h -0.74799 -0.74799 v 3.17588 3.17589 h 5.20188 5.20188 l -0.005,-0.73921 c -0.003,-0.40657 -0.0148,-1.02669 -0.0274,-1.37806 l -0.0229,-0.63882 -1.72484,-0.005 c -0.94866,-0.003 -1.74126,-0.007 -1.76134,-0.009 -0.022,-0.003 -0.0365,-0.17764 -0.0365,-0.44167 v -0.43711 l -0.10168,-0.0526 c -0.13706,-0.0709 -0.20018,-0.2011 -0.18483,-0.38134 0.0125,-0.14649 0.009,-0.15209 -0.18655,-0.26946 -0.24079,-0.14481 -0.41835,-0.36827 -0.49337,-0.62089 -0.0719,-0.24208 -0.0817,-1.73985 -0.0119,-1.80969 0.0241,-0.0241 0.10606,-0.0438 0.18215,-0.0438 h 0.13834 l 0.01,-1.65182 0.01,-1.65183 2.099,-0.0182 2.09901,-0.0182 v -1.71571 -1.7157 l -1.77047,-0.0182 -1.77046,-0.0182 -0.0102,-0.44681 c -0.0102,-0.44646 -0.0103,-0.44687 -0.11081,-0.49883 -0.14004,-0.0724 -0.20339,-0.20687 -0.17992,-0.3819 0.0182,-0.13579 0.012,-0.14829 -0.0953,-0.19255 -0.17206,-0.071 -0.41928,-0.31534 -0.52873,-0.52269 l -0.0971,-0.18399 v -0.89436 -0.89436 l 0.17303,-0.0112 0.17303,-0.0112 0.009,-1.6681 0.01,-1.66809 2.08989,-0.009 c 1.14943,-0.005 2.09187,-0.0216 2.0943,-0.0365 0.003,-0.0149 0.009,-1.37821 0.0143,-3.02958 0.008,-2.54303 0.002,-3.00296 -0.0409,-3.00557 -0.0279,-0.002 -0.91705,-0.005 -1.97586,-0.006 l -1.9251,-0.003 -0.0262,0.15318 c -0.0372,0.21794 -0.20188,0.50098 -0.38553,0.66264 -0.46757,0.41158 -1.12836,0.43407 -1.5957,0.0543 -0.20987,-0.17053 -0.41282,-0.48289 -0.44522,-0.68523 -0.0121,-0.0757 -0.039,-0.14816 -0.0596,-0.16093 -0.0207,-0.0128 -0.91379,-0.0248 -1.9847,-0.0266 l -1.94711,-0.003 v 1.35979 1.35978 h 2.0951 z m -1.4204,3.57744 h 0.67471 l 0.01,-0.92173 0.01,-0.92174 h 0.76659 0.76659 l 0.01,0.79396 0.01,0.79398 h 0.54686 0.54686 v -1.5697 -1.56969 h -2.00775 -2.00774 v 1.69747 1.69745 z m 1.02276,3.61393 h 1.69745 v -0.36504 c 0,-0.28992 -0.0106,-0.36503 -0.0515,-0.36503 -0.0283,0 -0.0958,-0.0526 -0.14993,-0.11696 -0.0825,-0.0981 -0.0956,-0.14212 -0.0808,-0.27289 0.0175,-0.15555 0.0171,-0.1562 -0.17352,-0.26377 -0.20557,-0.11602 -0.38366,-0.31426 -0.48397,-0.53869 -0.0519,-0.11617 -0.0648,-0.28543 -0.0754,-0.99066 -0.009,-0.62563 -0.002,-0.86455 0.0311,-0.90348 0.0246,-0.0296 0.10636,-0.0529 0.18548,-0.0529 h 0.14155 v -0.71184 -0.71184 h -0.60232 -0.60233 v 0.92696 c 0,0.81159 -0.007,0.92972 -0.0577,0.94912 -0.0317,0.0122 -0.37672,0.0221 -0.76659,0.0221 h -0.70885 v 1.69745 1.69745 z m -0.24641,7.05407 1.45105,0.01 0.01,1.65182 0.01,1.65183 h 0.54719 0.54719 v -3.34016 -3.34014 h -2.00774 -2.00774 v 1.67877 1.6788 z m -0.62057,3.61367 0.83047,0.01 0.0182,1.77046 0.0182,1.77047 h 0.84876 0.84875 l -3e-5,-0.35006 c -3e-5,-0.33594 -0.004,-0.3517 -0.0893,-0.39076 -0.14468,-0.0659 -0.21459,-0.20536 -0.1941,-0.38714 0.0171,-0.15164 0.0121,-0.16195 -0.10521,-0.21789 -0.19897,-0.0949 -0.43619,-0.33888 -0.52897,-0.54409 -0.083,-0.18357 -0.0863,-0.22408 -0.0863,-1.06691 v -0.87611 l 0.17379,-0.0112 0.17379,-0.0112 -0.01,-1.55854 -0.01,-1.55856 -1.35979,-0.003 -1.35979,-0.003 v 1.70917 1.70915 l 0.83048,0.01 z m 1.81213,-12.65723 c 0.0785,0.18371 0.25308,0.36747 0.44201,0.46534 0.11015,0.0571 0.21002,0.0749 0.40654,0.0727 0.40019,-0.005 0.65346,-0.1664 0.81341,-0.51976 0.067,-0.14809 0.0744,-0.23881 0.0752,-0.92173 l 0.001,-0.75746 h -0.9076 -0.90759 l 0.007,0.75746 c 0.006,0.62158 0.0186,0.78367 0.0698,0.90348 z m -0.003,14.19323 c 0.16156,0.3751 0.40254,0.54207 0.80467,0.55755 0.30658,0.0119 0.48818,-0.0537 0.67577,-0.24374 0.23691,-0.23999 0.2606,-0.34946 0.2606,-1.2042 v -0.76357 h -0.907 -0.907 l 0.007,0.75747 c 0.005,0.61058 0.0182,0.78443 0.0664,0.89649 z m 0.6837,-13.18695 c 0.0465,0.0869 0.22499,0.0947 0.30639,0.0132 0.1144,-0.11439 0.035,-0.27118 -0.13739,-0.27118 -0.18549,0 -0.25239,0.10212 -0.169,0.25794 z m 0.0226,14.24058 c 0.0862,0.0952 0.21865,0.084 0.28974,-0.0245 0.0855,-0.13051 0.002,-0.25708 -0.16592,-0.25225 -0.1776,0.005 -0.24113,0.14712 -0.12382,0.27676 z m 2.76199,-11.80857 c 0.10258,0.20048 0.2542,0.33867 0.47101,0.42926 0.14632,0.0611 0.5294,0.0561 0.69065,-0.009 0.1648,-0.0666 0.36783,-0.27259 0.45666,-0.46336 0.0805,-0.17287 0.0851,-0.22386 0.0855,-0.94025 l 4.4e-4,-0.75746 h -0.90489 -0.90487 l 0.004,0.77571 c 0.004,0.7635 0.006,0.77871 0.10126,0.9651 z m -0.022,10.82188 c 0.15541,0.34719 0.4371,0.52331 0.83179,0.52006 0.39567,-0.003 0.65845,-0.17191 0.8184,-0.52525 0.067,-0.14809 0.0744,-0.23881 0.0752,-0.92173 l 10e-4,-0.75747 h -0.90467 -0.90469 l 0.004,0.75747 c 0.003,0.68347 0.0111,0.77402 0.0795,0.92692 z m 0.83109,-12.74524 h 0.56512 l 0.01,-0.81221 0.01,-0.81222 0.69358,-0.0104 c 0.38147,-0.006 0.73055,-0.002 0.77572,0.01 l 0.0821,0.0202 v 0.92517 0.92515 l 0.65468,0.002 c 0.45878,0.002 0.65913,-0.0115 0.66956,-0.0406 0.008,-0.023 0.0133,-0.78914 0.0116,-1.70267 l -0.004,-1.66094 -2.01687,-0.009 -2.01687,-0.009 v 1.58825 1.58825 h 0.56512 z m -1e-5,10.84183 h 0.56511 l 0.01,-0.79398 0.01,-0.79397 h 0.76659 0.7666 l 0.0182,0.9337 0.0182,0.93369 0.65708,-0.003 0.65707,-0.003 10e-4,-1.70657 0.001,-1.70658 h -2.01792 -2.01791 v 1.56969 1.5697 h 0.56511 z m -0.12853,-7.94104 c 0.15128,0.1369 0.38524,-0.0474 0.27645,-0.21771 -0.035,-0.0547 -0.0775,-0.0698 -0.16993,-0.0602 -0.18718,0.0194 -0.23997,0.15715 -0.10652,0.27793 z m 0.0212,10.88398 c 0.072,0.0472 0.11168,0.0521 0.17746,0.0222 0.18181,-0.0828 0.11549,-0.33682 -0.0879,-0.33682 -0.18546,0 -0.24582,0.2122 -0.0895,0.31463 z m 1.85111,-9.93962 c 0.9085,-0.003 1.66939,-0.007 1.69086,-0.009 0.0272,-0.002 0.037,-0.50934 0.0323,-1.6731 -0.004,-0.91855 -0.009,-1.68208 -0.0117,-1.69671 -0.003,-0.0146 -0.33758,-0.0311 -0.74415,-0.0365 l -0.73921,-0.01 -0.01,-0.92174 -0.01,-0.92173 h -0.6017 -0.60169 v 0.71184 0.71182 h 0.16357 c 0.14493,0 0.16624,0.0106 0.18696,0.0932 0.0129,0.0513 0.0166,0.4431 0.008,0.87081 l -0.015,0.77763 -0.1184,0.24051 c -0.12204,0.24789 -0.27892,0.40334 -0.52595,0.52114 -0.11017,0.0525 -0.12765,0.0752 -0.0991,0.12852 0.0191,0.0356 0.0347,0.10563 0.0347,0.1556 0,0.10272 -0.16221,0.31548 -0.24052,0.31548 -0.041,0 -0.0515,0.0764 -0.0515,0.37417 v 0.37418 z m 0.0233,10.86614 h 1.6751 l 0.0243,-0.88522 c 0.0183,-0.66818 0.01,-2.18001 -0.014,-2.48155 -0.001,-0.0146 -0.33474,-0.0311 -0.74131,-0.0365 l -0.73922,-0.01 -0.01,-0.93999 -0.01,-0.93999 h -0.60171 -0.60171 v 0.71183 0.71184 h 0.14474 c 0.22322,0 0.23108,0.0354 0.21383,0.9638 -0.0144,0.77626 -0.0186,0.81445 -0.11017,1.01311 -0.11011,0.23884 -0.32592,0.46341 -0.53663,0.55843 -0.12935,0.0583 -0.14242,0.0751 -0.10829,0.13888 0.0765,0.14293 -0.0705,0.46516 -0.21217,0.46516 -0.037,0 -0.0484,0.0862 -0.0484,0.36504 v 0.36506 z m 2.77842,-20.51548 h 0.87611 v -0.91262 -0.91261 h -0.87611 -0.8761 v 0.91261 0.91262 z m 0,3.61393 h 0.87611 v -0.93085 -0.93087 h -0.87611 -0.8761 v 0.93087 0.93085 z m 0,3.61395 h 0.87611 v -0.93088 -0.93086 h -0.87611 -0.8761 v 0.93086 0.93088 z m 0,3.57743 h 0.87611 v -0.93086 -0.93087 h -0.87611 -0.8761 v 0.93087 0.93086 z m 0,3.61393 h 0.87611 v -0.93086 -0.93085 h -0.87611 -0.8761 v 0.93085 0.93086 z m 0,3.61395 h 0.87611 v -0.93087 -0.93086 h -0.87611 -0.8761 v 0.93086 0.93087 z m 0,3.65044 h 0.87611 v -0.93999 -0.93999 h -0.87611 -0.8761 v 0.94025 0.94025 h 0.8761 z"
       id="path3745"
       inkscape:connector-curvature="0" />
    <path
       style="fill:#282828;fill-opacity:0;stroke-width:0.02924518"
       d="m 251.44002,130.09004 c 1.01737,0.001 1.90061,0.0108 1.96275,0.0219 0.10724,0.0192 0.11563,0.0288 0.16489,0.18806 0.1432,0.46305 0.5518,0.82991 1.01218,0.90877 0.62172,0.10649 1.28355,-0.34801 1.41771,-0.97359 l 0.0315,-0.14686 h 1.93926 c 1.74136,0 1.94106,0.005 1.957,0.0463 0.0164,0.0428 0.0268,5.97352 0.0104,5.98209 -0.004,0.002 -0.93803,0.0127 -2.07559,0.0236 -1.13755,0.0108 -2.07724,0.0287 -2.0882,0.0396 -0.0109,0.0109 -0.0264,0.76306 -0.0342,1.67133 l -0.0142,1.65141 -0.16406,0.009 -0.16407,0.009 -0.008,0.89333 -0.008,0.89334 0.0915,0.16892 c 0.11167,0.20617 0.35113,0.45695 0.51728,0.54171 l 0.12319,0.0628 v 0.18014 c 0,0.17694 0.003,0.18241 0.13719,0.3079 l 0.1372,0.12776 0.0126,0.41851 0.0126,0.4185 0.26415,0.0187 c 0.14527,0.0103 0.81941,0.0188 1.49807,0.0188 0.67866,0 1.3544,0.009 1.50163,0.019 l 0.2677,0.019 v 1.69184 c 0,1.59052 -0.003,1.69204 -0.0512,1.69516 -0.0281,0.002 -0.96145,0.0117 -2.074,0.0219 -1.11254,0.0102 -2.03247,0.0283 -2.04426,0.0401 -0.0118,0.0118 -0.0279,0.75866 -0.0358,1.65966 l -0.0143,1.63819 h -0.14107 c -0.10482,0 -0.14786,0.0131 -0.16746,0.0512 -0.0448,0.0869 -0.0642,0.7576 -0.0368,1.27059 0.0232,0.43404 0.0347,0.50715 0.10361,0.65802 0.0905,0.19805 0.22745,0.3493 0.46195,0.50999 l 0.16816,0.11522 v 0.17214 c 0,0.14173 0.0132,0.18774 0.0744,0.26055 0.0409,0.0486 0.0983,0.096 0.1274,0.10524 0.0467,0.0148 0.0555,0.068 0.0739,0.44636 0.0115,0.23625 0.0273,0.43994 0.0352,0.45266 0.008,0.0127 0.79478,0.0231 1.74872,0.0231 h 1.73443 l 0.0182,0.41674 c 0.01,0.22922 0.0268,0.84775 0.0373,1.37453 l 0.0191,0.95778 h -5.19517 -5.19517 v -3.1731 -3.17311 h 0.72637 0.72638 l 0.0194,1.18923 c 0.0106,0.65407 0.0194,1.45685 0.0194,1.78395 v 0.59473 h 1.0031 c 0.74121,0 1.01227,-0.009 1.03821,-0.0351 0.0238,-0.0238 0.0351,-0.16099 0.0351,-0.42618 v -0.39111 l 0.11601,-0.10414 c 0.13543,-0.12158 0.18541,-0.2481 0.16067,-0.40675 -0.0173,-0.11098 -0.0146,-0.1152 0.11485,-0.18285 0.16295,-0.0851 0.42645,-0.35656 0.5154,-0.53094 0.0489,-0.0957 0.0724,-0.21022 0.0899,-0.43737 0.0347,-0.44937 0.0324,-1.39767 -0.004,-1.46483 -0.0235,-0.0439 -0.0618,-0.0566 -0.17072,-0.0566 h -0.14045 l -0.0205,-3.35058 c -0.0113,-1.84282 -0.0278,-3.38731 -0.0368,-3.43219 -0.0159,-0.0793 -0.023,-0.0821 -0.25476,-0.10018 -0.13114,-0.0102 -1.07083,-0.0187 -2.0882,-0.0187 l -1.84976,-1.7e-4 v -1.63295 -1.63294 l 1.75909,-0.0189 c 0.9675,-0.0104 1.76699,-0.0268 1.77665,-0.0364 0.01,-0.01 0.0241,-0.20166 0.0321,-0.42674 l 0.0146,-0.40925 0.0943,-0.0782 c 0.11986,-0.0995 0.1942,-0.27548 0.17026,-0.40311 -0.017,-0.0908 -0.009,-0.10155 0.13655,-0.19504 0.22236,-0.14239 0.44539,-0.3987 0.52106,-0.59882 0.0574,-0.15175 0.065,-0.24042 0.0781,-0.91381 0.0113,-0.58039 0.006,-0.77169 -0.0249,-0.86273 -0.0377,-0.11165 -0.0457,-0.11738 -0.17459,-0.12574 l -0.13507,-0.009 -0.0212,-1.62897 c -0.0126,-0.96663 -0.0326,-1.64087 -0.0492,-1.65822 -0.018,-0.0188 -0.77008,-0.0326 -2.10295,-0.0385 l -2.07497,-0.009 v -1.34335 -1.34335 z"
       id="path4553"
       inkscape:connector-curvature="0" />
    <path
       style="fill:#282828;fill-opacity:1;stroke-width:0.00365565"
       d="m 256.58255,142.79015 c 5.1e-4,-5.2e-4 0.002,-0.0217 0.004,-0.0466 0.001,-0.0249 0.003,-0.0463 0.004,-0.0475 10e-4,-0.001 0.003,-0.0114 0.004,-0.0224 0.005,-0.0398 0.0184,-0.0586 0.0458,-0.0639 0.0472,-0.009 0.11339,-0.0709 0.17244,-0.16093 0.0606,-0.0924 0.0722,-0.15376 0.0468,-0.24704 -0.006,-0.0223 -0.0135,-0.0452 -0.0164,-0.051 -0.009,-0.0182 -0.0167,-0.0433 -0.015,-0.0519 0.006,-0.0308 0.0222,-0.0436 0.11637,-0.0909 0.0673,-0.0339 0.0638,-0.032 0.0992,-0.0527 0.0298,-0.0174 0.0323,-0.0189 0.0535,-0.0328 0.0201,-0.0132 0.069,-0.0492 0.077,-0.0567 0.003,-0.003 0.0139,-0.0121 0.0238,-0.0201 0.0303,-0.0247 0.0994,-0.0969 0.12704,-0.13272 0.0732,-0.095 0.0997,-0.1411 0.20273,-0.35178 l 0.0546,-0.11162 0.003,-0.14062 c 0.002,-0.0773 0.003,-0.17517 0.004,-0.21739 0.001,-0.0422 0.003,-0.11872 0.004,-0.16999 10e-4,-0.0513 0.003,-0.14503 0.005,-0.20837 0.006,-0.26311 0.003,-0.84063 -0.005,-0.89198 -0.006,-0.0431 -0.0219,-0.0769 -0.0409,-0.0894 -0.029,-0.0192 -0.0608,-0.0224 -0.23024,-0.0234 l -0.0813,-5.2e-4 v -0.71282 -0.71285 h 0.60136 0.60135 l 3.5e-4,0.0119 c 10e-4,0.0403 0.006,0.42862 0.009,0.77409 10e-4,0.10354 0.003,0.24748 0.004,0.31987 0.001,0.0724 0.003,0.241 0.004,0.3747 0.003,0.275 0.004,0.36167 0.006,0.36358 0.002,0.001 0.14637,0.004 0.42906,0.007 0.37646,0.005 0.50383,0.007 0.62146,0.011 0.0281,0.001 0.0775,0.003 0.10967,0.004 0.0691,0.002 0.11042,0.005 0.2102,0.011 0.0525,0.004 0.0991,0.009 0.10588,0.0127 0.006,0.003 0.007,0.0133 0.007,0.13612 4.6e-4,0.073 0.002,0.16719 0.002,0.20941 0.003,0.17101 0.007,1.24197 0.007,1.77665 0,0.51692 -0.003,0.9277 -0.007,0.99982 -10e-4,0.0151 -0.003,0.048 -0.004,0.0731 -0.001,0.0251 -0.003,0.0589 -0.004,0.0749 -10e-4,0.0161 -0.002,0.0317 -0.002,0.0347 -1.2e-4,0.0113 -0.0106,0.0639 -0.0133,0.0665 -0.004,0.004 -0.40514,0.006 -1.89074,0.0121 -0.25434,0.001 -0.68579,0.003 -0.95877,0.004 l -0.49634,0.002 2.3e-4,-0.28486 c 1.2e-4,-0.15667 0.001,-0.28546 0.002,-0.28621 z"
       id="path4565"
       inkscape:connector-curvature="0" />
    <path
       style="fill:#282828;fill-opacity:1;stroke-width:0.02924518"
       d="m 250.3131,136.57289 c 0.45412,0 0.75092,-0.0112 0.76173,-0.0287 0.01,-0.0158 0.0168,-0.44374 0.0158,-0.95106 l -0.002,-0.92242 0.60736,0.008 0.60734,0.008 v 0.7165 0.71651 l -0.10235,0.003 c -0.18952,0.005 -0.23385,0.0337 -0.23499,0.15288 -0.004,0.3717 0.007,1.41261 0.0154,1.50342 0.0187,0.20533 0.0491,0.30066 0.13797,0.4321 0.0902,0.13347 0.33893,0.37943 0.38419,0.37992 0.0136,1.7e-4 0.062,0.0268 0.10749,0.0592 0.0702,0.05 0.0822,0.0779 0.0791,0.18468 -0.005,0.16521 0.0473,0.28426 0.15566,0.35607 0.10931,0.0724 0.11913,0.1106 0.12523,0.48662 l 0.005,0.30285 -1.70353,0.008 -1.70353,0.008 v -1.71108 -1.71109 z"
       id="path4575"
       inkscape:connector-curvature="0" />
    <path
       style="fill:#282828;fill-opacity:1;stroke-width:0.02924518"
       d="m 249.60538,143.66376 c 0.0202,-0.008 0.92512,-0.0106 2.01085,-0.006 l 1.97405,0.008 0.007,3.34126 0.007,3.34126 h -0.55579 -0.55578 l -10e-4,-0.15354 c -0.0118,-1.59718 -0.0373,-3.11185 -0.0527,-3.12798 -0.0108,-0.0114 -0.65788,-0.0246 -1.43788,-0.0292 l -1.41818,-0.009 -0.008,-1.67511 c -0.006,-1.32454 1.7e-4,-1.67806 0.0292,-1.68917 z"
       id="path4579"
       inkscape:connector-curvature="0" />
    <path
       style="fill:#282828;fill-opacity:1;stroke-width:0.02924518"
       d="m 250.92539,147.21985 1.35633,0.003 0.0156,0.22436 c 0.009,0.12341 0.0179,0.82646 0.0206,1.56234 0.005,1.20154 2.9e-4,1.33834 -0.0413,1.34162 -0.0255,0.002 -0.0594,0.007 -0.0755,0.011 -0.0161,0.004 -0.0761,0.009 -0.13332,0.0109 l -0.10406,0.004 0.005,0.8539 c 0.006,0.93779 0.0181,1.01968 0.18367,1.23713 0.11349,0.14911 0.28329,0.30174 0.42214,0.37946 0.10635,0.0595 0.10901,0.0653 0.12498,0.2696 0.0173,0.22105 0.0466,0.27932 0.17021,0.33854 0.0889,0.0426 0.11486,0.15809 0.11838,0.52584 l 0.002,0.22665 h -0.85935 -0.85936 l -0.0128,-0.50448 c -0.007,-0.27746 -0.016,-1.07011 -0.0198,-1.76143 -0.004,-0.69132 -0.0105,-1.26042 -0.0147,-1.26465 -0.004,-0.004 -0.34887,-0.0131 -0.76584,-0.0198 -0.41698,-0.007 -0.78775,-0.0133 -0.82394,-0.0148 l -0.0658,-0.003 v -1.71141 -1.7114 z"
       id="path4581"
       inkscape:connector-curvature="0" />
    <path
       style="fill:#504945;fill-opacity:1;stroke-width:0.08271787"
       d="m 248.50307,131.86025 0.89195,0.0235 v 0.9099 0.90989 h -0.86854 -0.86854 l -0.0234,-0.9334 -0.0234,-0.9334 z"
       id="path4583"
       inkscape:connector-curvature="0" />
    <path
       style="fill:#504945;fill-opacity:1;stroke-width:0.08271787"
       d="m 247.72618,135.43473 c 0.0603,-0.0231 0.46044,-0.0313 0.88922,-0.0181 l 0.77962,0.024 v 0.95126 0.95126 l -0.57903,0.0145 c -0.31846,0.008 -0.71861,-0.006 -0.88922,-0.0313 l -0.31019,-0.0458 v -0.90192 c 0,-0.67246 0.0279,-0.91262 0.1096,-0.94398 z"
       id="path4585"
       inkscape:connector-curvature="0" />
    <path
       style="fill:#504945;fill-opacity:1;stroke-width:0.08271787"
       d="m 248.52919,139.03884 h 0.91261 l -0.0234,0.93058 -0.0234,0.93058 -0.88922,0.0235 -0.88922,0.0235 v -0.95405 -0.95406 z"
       id="path4587"
       inkscape:connector-curvature="0" />
    <path
       style="fill:#504945;fill-opacity:1;stroke-width:0.08271787"
       d="m 247.66917,142.65341 c 0.0317,-0.0317 0.44352,-0.0577 0.91508,-0.0577 h 0.85738 l -0.0233,0.97194 -0.0233,0.97193 h -0.86853 -0.86854 l -0.0232,-0.91423 c -0.0128,-0.50283 0.003,-0.9402 0.0345,-0.97194 z"
       id="path4589"
       inkscape:connector-curvature="0" />
    <path
       style="fill:#504945;fill-opacity:1;stroke-width:0.08271787"
       d="m 248.52648,146.2353 h 0.9099 v 0.95125 0.95126 h -0.9099 -0.9099 v -0.95126 -0.95125 z"
       id="path4591"
       inkscape:connector-curvature="0" />
    <path
       style="fill:#504945;fill-opacity:1;stroke-width:0.08271787"
       d="m 248.52919,149.87488 h 0.91261 l -0.0234,0.93058 -0.0234,0.93058 -0.88922,0.0235 -0.88922,0.0235 v -0.95405 -0.95406 z"
       id="path4593"
       inkscape:connector-curvature="0" />
    <path
       style="fill:#504945;fill-opacity:1;stroke-width:0.08271787"
       d="m 248.44105,153.51447 h 0.91261 v 0.95406 0.95405 l -0.88922,-0.0235 -0.88922,-0.0235 -0.0234,-0.93058 -0.0234,-0.93057 z"
       id="path4595"
       inkscape:connector-curvature="0" />
    <path
       style="fill:#504945;fill-opacity:1;stroke-width:0.08271787"
       d="m 261.01417,153.51447 h 0.9126 v 0.95406 0.95405 l -0.88921,-0.0235 -0.88922,-0.0235 -0.0234,-0.93058 -0.0234,-0.93057 z"
       id="path4597"
       inkscape:connector-curvature="0" />
    <path
       style="fill:#504945;fill-opacity:1;stroke-width:0.08271787"
       d="m 260.16213,149.93003 c 0.0303,-0.0303 0.441,-0.0551 0.9126,-0.0551 h 0.85746 l -0.0234,0.93058 -0.0234,0.93058 -0.88921,0.0235 -0.88922,0.0235 v -0.8989 c 0,-0.49441 0.0248,-0.92373 0.0552,-0.95406 z"
       id="path4599"
       inkscape:connector-curvature="0" />
    <path
       style="fill:#504945;fill-opacity:1;stroke-width:0.08271787"
       d="m 260.16213,146.29044 c 0.0303,-0.0303 0.43978,-0.0551 0.90989,-0.0551 h 0.85475 v 0.95125 0.95126 h -0.90989 -0.9099 v -0.89611 c 0,-0.49286 0.0248,-0.92092 0.0551,-0.95126 z"
       id="path4601"
       inkscape:connector-curvature="0" />
    <path
       style="fill:#504945;fill-opacity:1;stroke-width:0.08271787"
       d="m 260.99355,142.61357 0.89186,0.0235 v 0.95126 0.95125 h -0.86853 -0.86854 l -0.0233,-0.97476 -0.0233,-0.97475 z"
       id="path4603"
       inkscape:connector-curvature="0" />
    <path
       style="fill:#504945;fill-opacity:1;stroke-width:0.08271787"
       d="m 260.16213,139.09399 c 0.0303,-0.0303 0.43978,-0.0551 0.90989,-0.0551 h 0.85475 v 0.95126 0.95126 h -0.90989 -0.9099 v -0.89611 c 0,-0.49286 0.0248,-0.92093 0.0551,-0.95126 z"
       id="path4605"
       inkscape:connector-curvature="0" />
    <path
       style="fill:#504945;fill-opacity:1;stroke-width:0.08271787"
       d="m 260.21386,135.43577 c 0.0618,-0.0237 0.46315,-0.0323 0.89194,-0.0191 l 0.77961,0.024 0.0233,0.97476 0.0233,0.97476 -0.89187,-0.0235 -0.89187,-0.0235 -0.0234,-0.93213 c -0.0182,-0.72538 0.002,-0.94169 0.0889,-0.97523 z"
       id="path4607"
       inkscape:connector-curvature="0" />
    <path
       style="fill:#504945;fill-opacity:1;stroke-width:0.08271787"
       d="m 260.21658,131.87786 c 0.0603,-0.0231 0.46043,-0.0313 0.88922,-0.0181 l 0.77961,0.024 v 0.9099 0.9099 l -0.88921,0.0235 -0.88922,0.0235 v -0.91528 c 0,-0.68357 0.0277,-0.92595 0.1096,-0.95736 z"
       id="path4609"
       inkscape:connector-curvature="0" />
    <path
       style="fill:#928374;fill-opacity:1;stroke-width:0.08271787"
       d="m 256.47492,139.70059 h 0.91743 l -0.0282,0.86684 c -0.0267,0.81941 -0.0408,0.87939 -0.25756,1.09602 -0.42491,0.42455 -1.32346,0.23231 -1.47683,-0.31596 -0.0307,-0.10964 -0.0595,-0.52504 -0.064,-0.92312 l -0.008,-0.72378 z"
       id="path4611"
       inkscape:connector-curvature="0" />
    <path
       style="fill:#928374;fill-opacity:1;stroke-width:0.08271787"
       d="m 252.15118,136.35161 c 0.0234,-0.0234 0.44571,-0.0425 0.93857,-0.0425 h 0.89611 v 0.74857 c 0,0.80308 -0.10257,1.12531 -0.43153,1.35572 -0.39181,0.27443 -1.24699,0.0243 -1.34981,-0.39472 -0.0614,-0.25018 -0.10506,-1.61539 -0.0533,-1.66711 z"
       id="path4613"
       inkscape:connector-curvature="0" />
    <path
       style="fill:#928374;fill-opacity:1;stroke-width:0.01462259"
       d="m 256.29784,142.21934 c 0.0176,-0.0446 0.12149,-0.0901 0.20667,-0.0905 0.10217,-4.7e-4 0.16243,0.0619 0.16016,0.16594 -10e-4,0.0506 -0.0713,0.13722 -0.12575,0.1552 -0.13533,0.0447 -0.291,-0.10429 -0.24108,-0.23068 z"
       id="path4615"
       inkscape:connector-curvature="0" />
    <path
       style="fill:#928374;fill-opacity:1;stroke-width:0.01462259"
       d="m 252.86999,138.81257 c 0.0226,-0.0529 0.20653,-0.0904 0.28089,-0.0572 0.10655,0.0476 0.13679,0.16059 0.0644,0.24044 -0.0533,0.0588 -0.0917,0.0766 -0.16494,0.0766 -0.0715,0 -0.13328,-0.0326 -0.16324,-0.0861 -0.0217,-0.0387 -0.0316,-0.1397 -0.017,-0.1738 z"
       id="path4617"
       inkscape:connector-curvature="0" />
    <path
       style="fill:#928374;fill-opacity:1;stroke-width:0.01462259"
       d="m 255.58562,150.57193 c 0.009,-0.004 0.41815,-0.005 0.90873,-0.003 l 0.89198,0.004 -10e-4,0.57028 c -0.002,0.77694 -0.005,0.86228 -0.0408,1.01403 -0.005,0.0189 -0.0348,0.0894 -0.0673,0.15664 -0.0445,0.092 -0.0844,0.14731 -0.16062,0.22313 -0.0558,0.0554 -0.12315,0.1096 -0.14973,0.12035 -0.0265,0.0107 -0.0517,0.0245 -0.0559,0.0305 -0.004,0.006 -0.0658,0.0277 -0.13689,0.0484 -0.17415,0.0505 -0.35953,0.051 -0.58496,0.002 -0.10988,-0.0241 -0.23738,-0.1013 -0.34194,-0.20711 -0.0585,-0.0592 -0.11284,-0.12246 -0.12081,-0.14065 -0.008,-0.0182 -0.0275,-0.0545 -0.0434,-0.0807 -0.0159,-0.0262 -0.0285,-0.0493 -0.028,-0.0512 4.7e-4,-0.002 -0.007,-0.0233 -0.0166,-0.0474 -0.0483,-0.1219 -0.0557,-0.2475 -0.0639,-1.07946 -0.004,-0.4067 -0.001,-0.55474 0.0113,-0.55945 z"
       id="path4619"
       inkscape:connector-curvature="0" />
    <path
       style="fill:#928374;fill-opacity:1;stroke-width:0.01462259"
       d="m 256.3058,153.09474 c 0.0157,-0.0532 0.03,-0.0715 0.0717,-0.0914 0.1232,-0.0588 0.26627,0.003 0.29102,0.12599 0.0215,0.1067 -0.12569,0.24139 -0.22077,0.202 -0.0589,-0.0244 -0.13196,-0.0903 -0.14796,-0.13348 -0.009,-0.0247 -0.007,-0.0582 0.006,-0.10312 z"
       id="path4621"
       inkscape:connector-curvature="0" />
    <path
       style="fill:#928374;fill-opacity:1;stroke-width:0.01462259"
       d="m 253.04725,150.53311 0.91277,-0.004 -0.007,0.68726 c -0.004,0.37799 -0.0112,0.72666 -0.0165,0.77482 -0.0254,0.23288 -0.0829,0.34953 -0.25577,0.51928 -0.10911,0.10713 -0.24296,0.19027 -0.345,0.21431 -0.0877,0.0206 -0.43635,0.0193 -0.52791,-0.002 -0.25222,-0.0588 -0.42795,-0.20151 -0.55876,-0.45364 -0.091,-0.17542 -0.0988,-0.26962 -0.11033,-1.32667 l -0.005,-0.40556 z"
       id="path4623"
       inkscape:connector-curvature="0" />
    <path
       style="fill:#cc241f;fill-opacity:0;stroke-width:0.04135893"
       d="m 256.41322,142.16505 c 0.0568,-0.0143 0.13257,-0.0147 0.16833,-0.001 0.0956,0.0367 0.0562,0.20058 -0.0622,0.25943 -0.0846,0.042 -0.10931,0.0389 -0.15378,-0.0196 -0.0853,-0.1122 -0.0657,-0.21037 0.0477,-0.23882 z"
       id="path4657"
       inkscape:connector-curvature="0" />
    <path
       style="fill:#cc241d;fill-opacity:1;stroke-width:0.00365565"
       d="m 256.28947,142.25839 c 0.001,-0.001 0.003,-0.01 0.004,-0.0195 0.003,-0.0224 0.0105,-0.035 0.0314,-0.0502 0.0282,-0.0205 0.0983,-0.0507 0.11759,-0.0507 0.004,0 0.007,-0.001 0.007,-0.003 0,-0.006 0.0703,-0.006 0.0985,-5.1e-4 0.0375,0.008 0.059,0.0213 0.0935,0.0591 0.003,0.004 0.006,0.009 0.007,0.0128 5.1e-4,0.004 0.004,0.0147 0.007,0.0248 0.0106,0.0354 0.0126,0.0618 0.006,0.0817 -0.0128,0.0394 -0.0539,0.0938 -0.0876,0.11615 -0.008,0.005 -0.0146,0.0111 -0.0146,0.0128 0,0.002 -10e-4,0.003 -0.003,0.003 -0.002,-3e-4 -0.009,0.002 -0.0169,0.006 -0.008,0.004 -0.0164,0.005 -0.019,0.005 -0.003,-0.001 -0.006,-3.5e-4 -0.007,0.002 -0.006,0.009 -0.0767,-0.005 -0.10812,-0.0203 -0.0287,-0.0145 -0.0728,-0.048 -0.0728,-0.0552 0,-0.002 -0.005,-0.009 -0.0105,-0.0154 -0.006,-0.006 -0.01,-0.0119 -0.009,-0.0127 10e-4,-0.001 -0.002,-0.007 -0.006,-0.0145 -0.0103,-0.0183 -0.0224,-0.0744 -0.0172,-0.0796 z"
       id="path4665"
       inkscape:connector-curvature="0" />
    <path
       style="fill:#98971a;fill-opacity:1;stroke-width:0.01462259"
       d="m 252.93109,138.77484 c 0.18767,-0.0639 0.34666,0.0188 0.30881,0.16076 -0.0283,0.10597 -0.16251,0.16172 -0.2712,0.11262 -0.0633,-0.0286 -0.0875,-0.0705 -0.0971,-0.16802 l -0.008,-0.0823 z"
       id="path4667"
       inkscape:connector-curvature="0" />
    <path
       style="fill:#d79921;fill-opacity:1;stroke-width:0.01462259"
       d="m 256.324,153.06429 c 0.0219,-0.0487 0.0318,-0.0555 0.0979,-0.0665 0.0968,-0.0162 0.1583,-0.002 0.20463,0.0484 0.0585,0.0631 0.0613,0.10035 0.0133,0.17753 -0.0231,0.0371 -0.0551,0.0746 -0.0712,0.0835 -0.0161,0.009 -0.0325,0.0195 -0.0366,0.0237 -0.0138,0.0143 -0.0877,0.0103 -0.0877,-0.005 0,-0.008 -0.004,-0.011 -0.009,-0.006 -0.005,0.005 -0.0378,-0.0196 -0.0731,-0.0544 -0.0719,-0.0709 -0.0794,-0.10996 -0.0384,-0.2012 z"
       id="path4669"
       inkscape:connector-curvature="0" />
    <path
       style="fill:#458588;fill-opacity:1;stroke-width:0.01462259"
       d="m 252.86888,153.05697 c 0.0494,-0.11425 0.28575,-0.12573 0.34997,-0.017 0.0479,0.0811 0.002,0.20352 -0.0947,0.25012 -0.0727,0.0352 -0.17044,0.004 -0.22093,-0.0701 -0.0521,-0.0767 -0.0585,-0.10709 -0.0344,-0.16296 z"
       id="path4671"
       inkscape:connector-curvature="0" />
    <path
       style="fill:#458588;fill-opacity:1;stroke-width:0.04135893"
       d="m 252.77094,150.53867 c 0.36849,-0.008 0.79095,-0.0172 0.93881,-0.0207 0.16178,-0.004 0.26602,0.0103 0.26177,0.0356 -0.004,0.023 -0.0176,0.39192 -0.0304,0.81979 -0.0128,0.42787 -0.0371,0.79988 -0.0538,0.82669 -0.0168,0.0268 -0.034,0.0718 -0.0383,0.1 -0.004,0.0282 -0.0694,0.10263 -0.14482,0.16544 -0.0754,0.0628 -0.17011,0.14677 -0.21052,0.18658 -0.0404,0.0398 -0.0828,0.0724 -0.0942,0.0724 -0.0113,0 -0.0346,0.002 -0.0517,0.004 -0.0436,0.005 -0.46766,-0.0103 -0.57558,-0.0204 -0.0493,-0.005 -0.11907,-0.0329 -0.15509,-0.0628 -0.036,-0.0299 -0.0655,-0.0402 -0.0655,-0.0228 0,0.0727 -0.29454,-0.34128 -0.31684,-0.44536 -0.0134,-0.0626 -0.036,-0.11376 -0.0502,-0.11378 -0.0142,-2e-5 -0.0261,-0.19079 -0.0264,-0.42393 -2.8e-4,-0.23314 -0.0133,-0.57278 -0.0289,-0.75476 l -0.0283,-0.33088 z"
       id="path4673"
       inkscape:connector-curvature="0" />
    <path
       style="fill:#cc241d;fill-opacity:1;stroke-width:0.01462259"
       d="m 256.4771,139.70021 h 0.9284 l -0.009,0.10601 c -0.005,0.0583 -0.0118,0.12247 -0.0154,0.14257 -0.004,0.0201 -0.0107,0.19777 -0.0157,0.39481 -0.0127,0.49615 -0.035,0.85295 -0.0604,0.96359 -0.0118,0.0514 -0.018,0.097 -0.0138,0.10117 0.004,0.004 -0.002,0.018 -0.0133,0.0308 -0.0204,0.0225 -0.023,0.0293 -0.023,0.0597 0,0.0176 -0.13197,0.15023 -0.21273,0.21386 -0.21529,0.1696 -0.5765,0.22378 -0.86296,0.12943 -0.10623,-0.035 -0.31488,-0.13988 -0.32363,-0.16269 -0.004,-0.0109 -0.0158,-0.0198 -0.0258,-0.0198 -0.0207,0 -0.0907,-0.0785 -0.11402,-0.12795 -0.009,-0.0181 -0.0202,-0.0329 -0.0258,-0.0329 -0.0139,0 -0.0587,-0.11961 -0.0658,-0.17572 -0.007,-0.0528 -0.0355,-0.369 -0.0449,-0.49234 -0.004,-0.0467 -0.01,-0.23964 -0.0132,-0.42864 -0.004,-0.189 -0.009,-0.42423 -0.0121,-0.52275 l -0.005,-0.17913 z"
       id="path4675"
       inkscape:connector-curvature="0" />
    <path
       style="fill:#98971a;fill-opacity:1;stroke-width:0.01462259"
       d="m 252.14053,136.41012 c 0.009,-0.0281 0.0171,-0.0526 0.0182,-0.0545 0.003,-0.004 0.0802,-0.0165 0.17579,-0.0281 0.0402,-0.005 0.43036,-0.0117 0.86698,-0.0151 l 0.79387,-0.006 -0.003,0.50888 c -0.003,0.45723 -0.0137,0.73313 -0.034,0.83789 -0.0287,0.1487 -0.0678,0.28925 -0.10868,0.39116 -0.0169,0.0422 -0.0263,0.0768 -0.0209,0.0768 0.005,0 -0.003,0.01 -0.0185,0.0215 -0.0156,0.0118 -0.0235,0.0217 -0.0174,0.0219 0.006,2.3e-4 -5.1e-4,0.0124 -0.0146,0.0271 -0.076,0.0792 -0.1177,0.13226 -0.10991,0.14005 0.005,0.005 0.002,0.009 -0.006,0.009 -0.008,0 -0.0328,0.0166 -0.0547,0.0369 -0.0479,0.0444 -0.17665,0.11168 -0.18937,0.099 -0.005,-0.005 -0.009,-0.001 -0.009,0.009 0,0.0101 -0.008,0.0154 -0.0183,0.0117 -0.0101,-0.004 -0.0308,-1.1e-4 -0.0462,0.008 -0.0153,0.008 -0.10907,0.014 -0.20834,0.0136 -0.20107,-0.001 -0.34753,-0.0308 -0.51915,-0.10609 -0.0537,-0.0236 -0.10115,-0.0428 -0.10543,-0.0428 -0.0181,0 -0.14666,-0.0951 -0.19497,-0.14421 -0.0666,-0.0677 -0.12406,-0.19117 -0.12935,-0.27808 -0.002,-0.0372 -0.005,-0.0676 -0.006,-0.0676 -0.001,0 -0.005,-0.0856 -0.009,-0.1901 -0.004,-0.10455 -0.0114,-0.19996 -0.0161,-0.21202 -0.024,-0.0621 -0.038,-0.99778 -0.0159,-1.06746 z"
       id="path4677"
       inkscape:connector-curvature="0" />
    <path
       style="fill:#d79921;fill-opacity:1;stroke-width:0.01462259"
       d="m 255.57393,150.71307 c 0.007,-0.0672 0.0157,-0.12541 0.0196,-0.12931 0.006,-0.006 0.45591,-0.008 1.48305,-0.005 l 0.31134,0.001 -0.009,0.69823 c -0.005,0.38403 -0.0145,0.73496 -0.021,0.77983 -0.006,0.0449 -0.0321,0.13031 -0.0571,0.18982 -0.025,0.0595 -0.0455,0.11766 -0.0455,0.1292 0,0.0116 -0.005,0.0164 -0.0102,0.0108 -0.006,-0.006 -0.0173,0.003 -0.0258,0.019 -0.0181,0.0339 -0.18127,0.20424 -0.22166,0.23147 -0.0151,0.0102 -0.0455,0.0256 -0.0676,0.0343 -0.0221,0.009 -0.0402,0.0203 -0.0402,0.0258 0,0.005 -0.0157,0.0113 -0.0348,0.0129 -0.0192,0.002 -0.0537,0.0106 -0.0768,0.0201 -0.0231,0.009 -0.0485,0.0185 -0.0566,0.02 -0.008,0.002 -0.0179,0.004 -0.0219,0.006 -0.18588,0.0244 -0.36718,-0.002 -0.54834,-0.0278 0,-0.001 -0.0131,-0.005 -0.029,-0.008 -0.0159,-0.003 -0.0313,-0.0123 -0.0341,-0.0208 -0.003,-0.008 -0.0178,-0.0154 -0.0332,-0.0154 -0.0154,0 -0.0281,-0.007 -0.0281,-0.0155 0,-0.009 -0.006,-0.0119 -0.0131,-0.007 -0.007,0.005 -0.0172,-0.003 -0.0223,-0.0159 -0.005,-0.0131 -0.0134,-0.0198 -0.0185,-0.0146 -0.005,0.005 -0.0186,-0.004 -0.0299,-0.0201 -0.0113,-0.0162 -0.0267,-0.0256 -0.0342,-0.0209 -0.007,0.005 -0.0136,0.002 -0.0136,-0.005 0,-0.008 -0.0398,-0.054 -0.0884,-0.10323 -0.0486,-0.0492 -0.0843,-0.0895 -0.0792,-0.0895 0.0103,0 -0.0514,-0.10539 -0.0689,-0.11761 -0.006,-0.004 -0.0143,-0.0241 -0.018,-0.0439 -0.004,-0.0198 -0.008,-0.0375 -0.01,-0.0395 -0.002,-0.002 -0.005,-0.0102 -0.007,-0.0183 -0.002,-0.008 -0.005,-0.0196 -0.007,-0.0256 -0.002,-0.006 -0.003,-0.0153 -0.003,-0.0204 5.1e-4,-0.005 -0.005,-0.0644 -0.0124,-0.1316 -0.008,-0.0672 -0.0169,-0.32409 -0.0208,-0.57096 -0.004,-0.24686 -0.0101,-0.48045 -0.0138,-0.5191 -0.004,-0.0386 -0.001,-0.12526 0.006,-0.19249 z"
       id="path4679"
       inkscape:connector-curvature="0"
       sodipodi:nodetypes="cscccccsccccscccccscsscccccscsccscscccccc" />
  </g>
  <g
     inkscape:groupmode="layer"
     id="layer3"
     inkscape:label="Layer 3">
    <path
       style="fill:none;fill-opacity:1;stroke:#000000;stroke-width:0.26458332;stroke-opacity:1"
       d="m 249.40948,129.92642 c 0,0 3.24504,0 4.27012,0 0,1.49694 2.19765,1.52372 2.19765,0 1.07101,0 4.22839,0 4.22839,0 v 27.41998 h -10.69616 z"
       id="rect870"
       inkscape:connector-curvature="0"
       sodipodi:nodetypes="ccccccc" />
    <g
       id="g927"
       transform="translate(0,0.01946235)">
      <rect
         y="131.67642"
         x="260.10724"
         height="2.2085199"
         width="1.9158"
         id="rect873"
         style="fill:none;fill-opacity:1;stroke:#000000;stroke-width:0.26458332;stroke-opacity:1" />
      <rect
         y="135.28851"
         x="260.10724"
         height="2.2085199"
         width="1.9158"
         id="rect873-3"
         style="fill:none;fill-opacity:1;stroke:#000000;stroke-width:0.26458332;stroke-opacity:1" />
      <rect
         y="138.9006"
         x="260.10724"
         height="2.2085199"
         width="1.9158"
         id="rect873-6"
         style="fill:none;fill-opacity:1;stroke:#000000;stroke-width:0.26458332;stroke-opacity:1" />
      <rect
         y="142.51268"
         x="260.10724"
         height="2.2085199"
         width="1.9158"
         id="rect873-7"
         style="fill:none;fill-opacity:1;stroke:#000000;stroke-width:0.26458332;stroke-opacity:1" />
      <rect
         y="146.12477"
         x="260.10724"
         height="2.2085199"
         width="1.9158"
         id="rect873-5"
         style="fill:none;fill-opacity:1;stroke:#000000;stroke-width:0.26458332;stroke-opacity:1" />
      <rect
         y="149.73686"
         x="260.10724"
         height="2.2085199"
         width="1.9158"
         id="rect873-35"
         style="fill:none;fill-opacity:1;stroke:#000000;stroke-width:0.26458332;stroke-opacity:1" />
      <rect
         y="153.34895"
         x="260.10724"
         height="2.2085199"
         width="1.9158"
         id="rect873-62"
         style="fill:none;fill-opacity:1;stroke:#000000;stroke-width:0.26458332;stroke-opacity:1" />
    </g>
    <g
       transform="translate(-12.617501,0.01946235)"
       id="g959">
      <rect
         style="fill:none;fill-opacity:1;stroke:#000000;stroke-width:0.26458332;stroke-opacity:1"
         id="rect945"
         width="1.9158"
         height="2.2085199"
         x="260.10724"
         y="131.67642" />
      <rect
         style="fill:none;fill-opacity:1;stroke:#000000;stroke-width:0.26458332;stroke-opacity:1"
         id="rect947"
         width="1.9158"
         height="2.2085199"
         x="260.10724"
         y="135.28851" />
      <rect
         style="fill:none;fill-opacity:1;stroke:#000000;stroke-width:0.26458332;stroke-opacity:1"
         id="rect949"
         width="1.9158"
         height="2.2085199"
         x="260.10724"
         y="138.9006" />
      <rect
         style="fill:none;fill-opacity:1;stroke:#000000;stroke-width:0.26458332;stroke-opacity:1"
         id="rect951"
         width="1.9158"
         height="2.2085199"
         x="260.10724"
         y="142.51268" />
      <rect
         style="fill:none;fill-opacity:1;stroke:#000000;stroke-width:0.26458332;stroke-opacity:1"
         id="rect953"
         width="1.9158"
         height="2.2085199"
         x="260.10724"
         y="146.12477" />
      <rect
         style="fill:none;fill-opacity:1;stroke:#000000;stroke-width:0.26458332;stroke-opacity:1"
         id="rect955"
         width="1.9158"
         height="2.2085199"
         x="260.10724"
         y="149.73686" />
      <rect
         style="fill:none;fill-opacity:1;stroke:#000000;stroke-width:0.26458332;stroke-opacity:1"
         id="rect957"
         width="1.9158"
         height="2.2085199"
         x="260.10724"
         y="153.34895" />
    </g>
    <path
       style="fill:#282828;fill-opacity:1;stroke:#000000;stroke-width:0.17677669;stroke-opacity:1"
       d="m 943.13107,542.88331 0.0456,-51.35363 h 7.58803 7.58804 l 0.20218,0.89772 c 0.44011,1.95413 2.36781,3.43166 4.33235,3.32064 2.16965,-0.12262 3.30994,-0.80711 4.2297,-2.53899 0.36307,-0.68365 0.3665,-0.69604 0.3665,-1.32772 v -0.44384 l 7.54568,0.0461 7.54568,0.0461 0.0115,51.30793 0.0115,51.30793 -19.75616,0.0457 -19.75616,0.0457 z"
       id="path963"
       inkscape:connector-curvature="0"
       transform="scale(0.26458333)" />
    <path
       style="fill:#504945;fill-opacity:1;stroke:#000000;stroke-width:0.17677669;stroke-opacity:1"
       d="m 935.92879,556.49511 v -3.71231 h 3.04257 3.04257 l 0.051,3.71248 0.051,3.71248 -3.09359,-1.7e-4 -3.09359,-1.7e-4 z"
       id="path965"
       inkscape:connector-curvature="0"
       transform="scale(0.26458333)" />
    <path
       style="fill:#504945;fill-opacity:1;stroke:#000000;stroke-width:0.17677669;stroke-opacity:1"
       d="m 935.92879,542.88331 v -3.71232 h 3.09359 3.09359 v 3.71232 3.71231 h -3.09359 -3.09359 z"
       id="path967"
       inkscape:connector-curvature="0"
       transform="scale(0.26458333)" />
    <path
       style="fill:#504945;fill-opacity:1;stroke:#000000;stroke-width:0.17677669;stroke-opacity:1"
       d="m 935.97981,529.27167 0.051,-3.71248 h 2.99837 2.99838 v 3.71231 3.71231 l -3.0494,1.7e-4 -3.04939,1.7e-4 z"
       id="path969"
       inkscape:connector-curvature="0"
       transform="scale(0.26458333)" />
    <path
       style="fill:#504945;fill-opacity:1;stroke:#000000;stroke-width:0.17677669;stroke-opacity:1"
       d="m 935.97981,515.65986 0.051,-3.71248 h 2.99837 2.99838 v 3.71231 3.71231 l -3.0494,1.8e-4 -3.04939,1.7e-4 z"
       id="path971"
       inkscape:connector-curvature="0"
       transform="scale(0.26458333)" />
    <path
       style="fill:#504945;fill-opacity:1;stroke:#000000;stroke-width:0.17677669;stroke-opacity:1"
       d="m 935.97981,501.87094 -0.051,-3.71248 h 3.09359 3.09359 l -0.051,3.71248 -0.051,3.71248 h -2.99155 -2.99155 z"
       id="path973"
       inkscape:connector-curvature="0"
       transform="scale(0.26458333)" />
    <path
       style="fill:#504945;fill-opacity:1;stroke:#000000;stroke-width:0.17677669;stroke-opacity:1"
       d="m 983.5701,501.87111 v -3.71231 h 3.18199 3.18198 v 3.71231 3.71231 h -3.18198 -3.18199 z"
       id="path975"
       inkscape:connector-curvature="0"
       transform="scale(0.26458333)" />
    <path
       style="fill:#504945;fill-opacity:1;stroke:#000000;stroke-width:0.17677669;stroke-opacity:1"
       d="m 983.69199,519.25818 c -0.067,-0.067 -0.12189,-1.73938 -0.12189,-3.71634 v -3.59446 h 3.18557 3.18557 l -0.0478,3.66812 -0.0478,3.66812 -3.01591,0.0482 c -1.65874,0.0265 -3.07075,-0.007 -3.13778,-0.0737 z"
       id="path977"
       inkscape:connector-curvature="0"
       transform="scale(0.26458333)" />
    <path
       style="fill:#504945;fill-opacity:1;stroke:#000000;stroke-width:0.17677669;stroke-opacity:1"
       d="m 983.5701,529.2715 v -3.71231 h 3.18199 3.18198 v 3.71231 3.71231 h -3.18198 -3.18199 z"
       id="path979"
       inkscape:connector-curvature="0"
       transform="scale(0.26458333)" />
    <path
       style="fill:#504945;fill-opacity:1;stroke:#000000;stroke-width:0.17677669;stroke-opacity:1"
       d="m 983.5701,542.88331 v -3.71232 h 3.18199 3.18198 v 3.71232 3.71231 h -3.18198 -3.18199 z"
       id="path981"
       inkscape:connector-curvature="0"
       transform="scale(0.26458333)" />
    <path
       style="fill:#504945;fill-opacity:1;stroke:#000000;stroke-width:0.17677669;stroke-opacity:1"
       d="m 983.61071,556.5393 0.0478,-3.66811 h 3.0936 3.09359 l 0.0478,3.66811 0.0478,3.66812 h -3.18915 -3.18916 z"
       id="path983"
       inkscape:connector-curvature="0"
       transform="scale(0.26458333)" />
    <path
       style="fill:#504945;fill-opacity:1;stroke:#000000;stroke-width:0.17677669;stroke-opacity:1"
       d="m 983.5701,570.1953 v -3.80885 l 3.13779,0.0483 3.13779,0.0483 v 3.71231 3.71232 l -3.13779,0.0483 -3.13779,0.0483 z"
       id="path985"
       inkscape:connector-curvature="0"
       transform="scale(0.26458333)" />
    <path
       style="fill:#504945;fill-opacity:1;stroke:#000000;stroke-width:0.17677669;stroke-opacity:1"
       d="m 983.5701,583.8955 v -3.71231 h 3.18199 3.18198 v 3.71231 3.71231 h -3.18198 -3.18199 z"
       id="path987"
       inkscape:connector-curvature="0"
       transform="scale(0.26458333)" />
    <path
       style="fill:#504945;fill-opacity:1;stroke:#000000;stroke-width:0.17677669;stroke-opacity:1"
       d="m 935.97981,583.89567 0.051,-3.71248 h 2.99155 2.99155 l 0.051,3.71248 0.051,3.71248 h -3.09359 -3.09359 z"
       id="path989"
       inkscape:connector-curvature="0"
       transform="scale(0.26458333)" />
    <path
       style="fill:#504945;fill-opacity:1;stroke:#000000;stroke-width:0.17677669;stroke-opacity:1"
       d="m 936.01717,570.1953 v -3.80069 l 3.0494,-1.7e-4 3.0494,-1.6e-4 -0.0509,3.80086 -0.0509,3.80086 h -2.99851 -2.99851 z"
       id="path991"
       inkscape:connector-curvature="0"
       transform="scale(0.26458333)"
       inkscape:export-xdpi="96"
       inkscape:export-ydpi="96" />
  </g>
</svg>
