<?xml version="1.0" encoding="UTF-8" standalone="no"?>
<svg
   xmlns:dc="http://purl.org/dc/elements/1.1/"
   xmlns:cc="http://creativecommons.org/ns#"
   xmlns:rdf="http://www.w3.org/1999/02/22-rdf-syntax-ns#"
   xmlns:svg="http://www.w3.org/2000/svg"
   xmlns="http://www.w3.org/2000/svg"
   xmlns:sodipodi="http://sodipodi.sourceforge.net/DTD/sodipodi-0.dtd"
   xmlns:inkscape="http://www.inkscape.org/namespaces/inkscape"
   width="300"
   height="69.449"
   viewBox="0 0 300 69.449"
   version="1.1"
   id="svg110"
   sodipodi:docname="fcefyn.svg"
   inkscape:export-filename="/home/ivan/Documentos/Fundacion/Tesis/fcefyn.png"
   inkscape:export-xdpi="728.53033"
   inkscape:export-ydpi="728.53033"
   inkscape:version="0.92.4 5da689c313, 2019-01-14">
  <metadata
     id="metadata114">
    <rdf:RDF>
      <cc:Work
         rdf:about="">
        <dc:format>image/svg+xml</dc:format>
        <dc:type
           rdf:resource="http://purl.org/dc/dcmitype/StillImage" />
      </cc:Work>
    </rdf:RDF>
  </metadata>
  <sodipodi:namedview
     pagecolor="#ffffff"
     bordercolor="#666666"
     borderopacity="1"
     objecttolerance="10"
     gridtolerance="10"
     guidetolerance="10"
     inkscape:pageopacity="0"
     inkscape:pageshadow="2"
     inkscape:window-width="900"
     inkscape:window-height="1006"
     id="namedview112"
     showgrid="false"
     inkscape:zoom="2.1333333"
     inkscape:cx="41.25"
     inkscape:cy="34.724499"
     inkscape:window-x="1004"
     inkscape:window-y="58"
     inkscape:window-maximized="0"
     inkscape:current-layer="svg110" />
  <defs
     id="defs4">
    <style
       id="style2">.a{fill:#10463e;}.b{fill:#ddcf82;}</style>
  </defs>
  <g
     transform="translate(-942.814 -257.382)"
     id="g108">
    <path
       class="a"
       d="M975.7,270.438a19.767,19.767,0,0,1,12.426,4.379l17.435-17.435H942.814v62.744l17.393-17.394a19.855,19.855,0,0,1,15.49-32.294"
       id="path6" />
    <path
       class="b"
       d="M1008.544,307.937a10.081,10.081,0,0,1-.069-14.947,11.273,11.273,0,0,0-.613-16.6,10.081,10.081,0,0,1-1.58-11.433c0-.006,0-.015,0-.022a.831.831,0,0,0,.091-.365.84.84,0,0,0-1.446-.583l0,0-13.808,13.81a19.861,19.861,0,0,1-27.939,27.938L949.608,319.3l-.012.015.01.008a.829.829,0,0,0,.643,1.369.824.824,0,0,0,.505-.186l.009.014a10.018,10.018,0,0,1,10.548,1.88,11.255,11.255,0,0,0,17.306.707h.025a10.1,10.1,0,0,1,14.048-.281,10.847,10.847,0,0,0,15.773.281l.081-.089a10.844,10.844,0,0,0,0-15.042Z"
       id="path8" />
    <path
       class="a"
       d="M1019.587,261.366h28.1l-.058,6.806h-20.243v11h18.44v6.8h-18.44v16.113h-7.794Z"
       id="path10" />
    <path
       class="a"
       d="M1083.327,269.22a13.828,13.828,0,0,0-12.883.407,13.094,13.094,0,0,0-4.945,4.974,14.309,14.309,0,0,0,0,13.9,13.3,13.3,0,0,0,4.945,5,13.487,13.487,0,0,0,6.922,1.831,14.534,14.534,0,0,0,5.845-1.279,16.765,16.765,0,0,0,5.207-3.549l4.594,5.12a24.016,24.016,0,0,1-7.443,5.147,20.984,20.984,0,0,1-8.611,1.89,21.3,21.3,0,0,1-10.76-2.791,20.5,20.5,0,0,1-7.681-7.591,20.732,20.732,0,0,1-2.791-10.617,20.238,20.238,0,0,1,2.852-10.587,20.453,20.453,0,0,1,7.764-7.5,22.538,22.538,0,0,1,19.459-.99,21.014,21.014,0,0,1,7.153,4.829l-4.536,5.7A15.33,15.33,0,0,0,1083.327,269.22Z"
       id="path12" />
    <path
       class="a"
       d="M1137.623,261.366h28.095l-.058,6.806h-20.243v11h18.44v6.8h-18.44v16.113h-7.794Z"
       id="path14" />
    <path
       class="a"
       d="M1235.252,261.366h7.562v40.72h-7.388l-20.942-28.038v28.038h-7.62v-40.72h7.388l21,28.1Z"
       id="path16" />
    <path
       class="a"
       d="M1197.745,279.168v20.6a11.2,11.2,0,0,1-1.5,5.8,10.306,10.306,0,0,1-4.19,3.911,13.25,13.25,0,0,1-6.163,1.4,17.447,17.447,0,0,1-6.337-1.2,13.44,13.44,0,0,1-4.975-3.125l2.391-3.771a11.431,11.431,0,0,0,3.806,2.427,11.671,11.671,0,0,0,4.452.942,8.1,8.1,0,0,0,3.736-.82,6.367,6.367,0,0,0,2.584-2.3,6.192,6.192,0,0,0,.925-3.351v-3.352a9.174,9.174,0,0,1-3.4,3.142,10.144,10.144,0,0,1-4.627,1.152,10.545,10.545,0,0,1-5.272-1.309,9.037,9.037,0,0,1-3.6-3.649,11.188,11.188,0,0,1-1.274-5.429v-11.05h5.272v10.544a5.837,5.837,0,0,0,1.711,4.347,6.128,6.128,0,0,0,4.451,1.658,6.374,6.374,0,0,0,4.609-1.868,7.439,7.439,0,0,0,2.13-4.818v-9.863Z"
       id="path18" />
    <path
       class="a"
       d="M1021.552,318.2v1.131h2.269v1.123h-2.269v1.763H1020.1v-5.14h4.031V318.2Z"
       id="path20" />
    <path
       class="a"
       d="M1028.058,321.218h-2.173l-.4,1H1024l2.269-5.14h1.432l2.277,5.14h-1.513Zm-.426-1.072-.661-1.645-.66,1.645Z"
       id="path22" />
    <path
       class="a"
       d="M1030.048,319.647a2.659,2.659,0,0,1,2.827-2.673,2.721,2.721,0,0,1,2.211.969l-.925.837a1.522,1.522,0,0,0-1.212-.6,1.469,1.469,0,0,0,0,2.937,1.522,1.522,0,0,0,1.212-.6l.925.837a2.721,2.721,0,0,1-2.211.97A2.659,2.659,0,0,1,1030.048,319.647Z"
       id="path24" />
    <path
       class="a"
       d="M1035.629,319.926v-2.849h1.454v2.8c0,.881.367,1.233.977,1.233s.969-.352.969-1.233v-2.8h1.432v2.849a2.416,2.416,0,0,1-4.832,0Z"
       id="path26" />
    <path
       class="a"
       d="M1041.445,317.077h1.454v3.987h2.453v1.153h-3.907Z"
       id="path28" />
    <path
       class="a"
       d="M1046.541,318.229h-1.578v-1.152h4.6v1.152h-1.572v3.988h-1.454Z"
       id="path30" />
    <path
       class="a"
       d="M1053.3,321.218h-2.173l-.4,1h-1.483l2.269-5.14h1.432l2.276,5.14H1053.7Zm-.425-1.072-.661-1.645-.661,1.645Z"
       id="path32" />
    <path
       class="a"
       d="M1055.625,317.077h2.431a2.586,2.586,0,1,1,0,5.14h-2.431Zm2.372,3.98a1.411,1.411,0,1,0,0-2.82h-.918v2.82Z"
       id="path34" />
    <path
       class="a"
       d="M1063.828,317.077h2.43a2.586,2.586,0,1,1,0,5.14h-2.43Zm2.372,3.98a1.411,1.411,0,1,0,0-2.82h-.918v2.82Z"
       id="path36" />
    <path
       class="a"
       d="M1074.02,321.093v1.124h-4.127v-5.14h4.032V318.2h-2.592v.867h2.283v1.086h-2.283v.94Z"
       id="path38" />
    <path
       class="a"
       d="M1076.7,319.647a2.659,2.659,0,0,1,2.827-2.673,2.719,2.719,0,0,1,2.21.969l-.925.837a1.52,1.52,0,0,0-1.212-.6,1.469,1.469,0,0,0,0,2.937,1.52,1.52,0,0,0,1.212-.6l.925.837a2.719,2.719,0,0,1-2.21.97A2.659,2.659,0,0,1,1076.7,319.647Z"
       id="path40" />
    <path
       class="a"
       d="M1082.384,317.077h1.454v5.14h-1.454Z"
       id="path42" />
    <path
       class="a"
       d="M1089,321.093v1.124h-4.126v-5.14h4.031V318.2h-2.592v.867h2.284v1.086h-2.284v.94Z"
       id="path44" />
    <path
       class="a"
       d="M1094.7,317.077v5.14h-1.2l-2.269-2.739v2.739h-1.425v-5.14h1.2l2.269,2.739v-2.739Z"
       id="path46" />
    <path
       class="a"
       d="M1095.463,319.647a2.659,2.659,0,0,1,2.827-2.673,2.718,2.718,0,0,1,2.21.969l-.925.837a1.52,1.52,0,0,0-1.212-.6,1.469,1.469,0,0,0,0,2.937,1.52,1.52,0,0,0,1.212-.6l.925.837a2.719,2.719,0,0,1-2.21.97A2.659,2.659,0,0,1,1095.463,319.647Z"
       id="path48" />
    <path
       class="a"
       d="M1101.147,317.077h1.454v5.14h-1.454Z"
       id="path50" />
    <path
       class="a"
       d="M1107.08,321.218h-2.174l-.4,1h-1.483l2.269-5.14h1.432l2.276,5.14h-1.512Zm-.426-1.072-.661-1.645-.661,1.645Z"
       id="path52" />
    <path
       class="a"
       d="M1109.048,321.754l.477-1.072a3.246,3.246,0,0,0,1.7.507c.6,0,.837-.169.837-.419,0-.815-2.923-.22-2.923-2.129,0-.918.749-1.667,2.276-1.667a3.848,3.848,0,0,1,1.866.448l-.448,1.079a3.041,3.041,0,0,0-1.425-.4c-.609,0-.83.2-.83.462,0,.786,2.916.2,2.916,2.093,0,.9-.749,1.66-2.277,1.66A4.047,4.047,0,0,1,1109.048,321.754Z"
       id="path54" />
    <path
       class="a"
       d="M1120.423,321.093v1.124H1116.3v-5.14h4.031V318.2h-2.592v.867h2.284v1.086h-2.284v.94Z"
       id="path56" />
    <path
       class="a"
       d="M1124.432,322.217l-1.065-1.594-1.05,1.594h-1.659l1.872-2.6-1.791-2.54h1.637l1.028,1.483,1.013-1.483h1.572l-1.792,2.482,1.909,2.658Z"
       id="path58" />
    <path
       class="a"
       d="M1129.764,321.218h-2.174l-.4,1H1125.7l2.269-5.14h1.432l2.276,5.14h-1.513Zm-.426-1.072-.661-1.645-.661,1.645Z"
       id="path60" />
    <path
       class="a"
       d="M1131.754,319.647a2.659,2.659,0,0,1,2.827-2.673,2.719,2.719,0,0,1,2.21.969l-.925.837a1.52,1.52,0,0,0-1.212-.6,1.469,1.469,0,0,0,0,2.937,1.52,1.52,0,0,0,1.212-.6l.925.837a2.719,2.719,0,0,1-2.21.97A2.659,2.659,0,0,1,1131.754,319.647Z"
       id="path62" />
    <path
       class="a"
       d="M1138.488,318.229h-1.579v-1.152h4.6v1.152h-1.572v3.988h-1.453Z"
       id="path64" />
    <path
       class="a"
       d="M1145.243,321.218h-2.173l-.4,1h-1.483l2.269-5.14h1.432l2.276,5.14h-1.513Zm-.425-1.072-.661-1.645-.661,1.645Z"
       id="path66" />
    <path
       class="a"
       d="M1147.211,321.754l.478-1.072a3.241,3.241,0,0,0,1.7.507c.6,0,.837-.169.837-.419,0-.815-2.922-.22-2.922-2.129,0-.918.749-1.667,2.276-1.667a3.848,3.848,0,0,1,1.865.448l-.448,1.079a3.038,3.038,0,0,0-1.424-.4c-.61,0-.83.2-.83.462,0,.786,2.915.2,2.915,2.093,0,.9-.749,1.66-2.276,1.66A4.048,4.048,0,0,1,1147.211,321.754Z"
       id="path68" />
    <path
       class="a"
       d="M1153.828,321.453a1.869,1.869,0,0,1-.243.845l-.462,1.072h-.874l.345-1.2a.755.755,0,0,1-.433-.72.834.834,0,0,1,1.667,0Z"
       id="path70" />
    <path
       class="a"
       d="M1158.138,318.2v1.131h2.269v1.123h-2.269v1.763h-1.454v-5.14h4.032V318.2Z"
       id="path72" />
    <path
       class="a"
       d="M1162.221,316.643h1.4l-1.38,1.117h-1Zm-.962,1.594h1.4v3.98h-1.4Z"
       id="path74" />
    <path
       class="a"
       d="M1163.234,321.754l.478-1.072a3.24,3.24,0,0,0,1.7.507c.6,0,.837-.169.837-.419,0-.815-2.922-.22-2.922-2.129,0-.918.748-1.667,2.276-1.667a3.847,3.847,0,0,1,1.865.448l-.448,1.079a3.041,3.041,0,0,0-1.424-.4c-.61,0-.83.2-.83.462,0,.786,2.915.2,2.915,2.093,0,.9-.749,1.66-2.276,1.66A4.049,4.049,0,0,1,1163.234,321.754Z"
       id="path76" />
    <path
       class="a"
       d="M1168.345,317.077h1.454v5.14h-1.454Z"
       id="path78" />
    <path
       class="a"
       d="M1170.57,319.647a2.659,2.659,0,0,1,2.827-2.673,2.721,2.721,0,0,1,2.211.969l-.925.837a1.522,1.522,0,0,0-1.212-.6,1.469,1.469,0,0,0,0,2.937,1.522,1.522,0,0,0,1.212-.6l.925.837a2.721,2.721,0,0,1-2.211.97A2.659,2.659,0,0,1,1170.57,319.647Z"
       id="path80" />
    <path
       class="a"
       d="M1179.61,321.218h-2.174l-.4,1h-1.483l2.269-5.14h1.432l2.276,5.14h-1.512Zm-.426-1.072-.661-1.645-.661,1.645Z"
       id="path82" />
    <path
       class="a"
       d="M1181.578,321.754l.477-1.072a3.246,3.246,0,0,0,1.7.507c.6,0,.837-.169.837-.419,0-.815-2.923-.22-2.923-2.129,0-.918.749-1.667,2.277-1.667a3.847,3.847,0,0,1,1.865.448l-.448,1.079a3.041,3.041,0,0,0-1.425-.4c-.609,0-.83.2-.83.462,0,.786,2.916.2,2.916,2.093,0,.9-.749,1.66-2.277,1.66A4.047,4.047,0,0,1,1181.578,321.754Z"
       id="path84" />
    <path
       class="a"
       d="M1191.58,320.374v1.843h-1.455v-1.865l-1.96-3.275h1.535l1.219,2.041,1.219-2.041h1.41Z"
       id="path86" />
    <path
       class="a"
       d="M1200.942,317.077v5.14h-1.2l-2.269-2.739v2.739h-1.425v-5.14h1.2l2.268,2.739v-2.739Z"
       id="path88" />
    <path
       class="a"
       d="M1205.414,321.218h-2.173l-.4,1h-1.484l2.269-5.14h1.432l2.277,5.14h-1.513Zm-.426-1.072-.661-1.645-.66,1.645Z"
       id="path90" />
    <path
       class="a"
       d="M1208.58,318.229H1207v-1.152h4.6v1.152h-1.572v3.988h-1.453Z"
       id="path92" />
    <path
       class="a"
       d="M1212.024,319.926v-2.849h1.454v2.8c0,.881.367,1.233.976,1.233s.97-.352.97-1.233v-2.8h1.431v2.849a2.416,2.416,0,0,1-4.831,0Z"
       id="path94" />
    <path
       class="a"
       d="M1220.087,320.851h-.793v1.366h-1.454v-5.14h2.349c1.4,0,2.284.727,2.284,1.9a1.7,1.7,0,0,1-1.006,1.623l1.109,1.616h-1.557Zm.014-2.629h-.807v1.506h.807c.6,0,.9-.28.9-.75S1220.7,318.222,1220.1,318.222Z"
       id="path96" />
    <path
       class="a"
       d="M1226.718,321.218h-2.174l-.4,1h-1.483l2.269-5.14h1.432l2.276,5.14h-1.513Zm-.426-1.072-.661-1.645-.661,1.645Z"
       id="path98" />
    <path
       class="a"
       d="M1229.046,317.077h1.454v3.987h2.452v1.153h-3.906Z"
       id="path100" />
    <path
       class="a"
       d="M1237.652,321.093v1.124h-4.127v-5.14h4.031V318.2h-2.592v.867h2.284v1.086h-2.284v.94Z"
       id="path102" />
    <path
       class="a"
       d="M1238.1,321.754l.477-1.072a3.242,3.242,0,0,0,1.7.507c.6,0,.837-.169.837-.419,0-.815-2.922-.22-2.922-2.129,0-.918.749-1.667,2.276-1.667a3.845,3.845,0,0,1,1.865.448l-.448,1.079a3.038,3.038,0,0,0-1.424-.4c-.61,0-.83.2-.83.462,0,.786,2.915.2,2.915,2.093,0,.9-.749,1.66-2.276,1.66A4.045,4.045,0,0,1,1238.1,321.754Z"
       id="path104" />
    <path
       class="a"
       d="M1108.85,295.28v-9.307h18.44v-6.806h-18.44v-11h20.243l.058-6.806h-28.1v40.72h28.1l-.058-6.806Z"
       id="path106" />
  </g>
</svg>
